<svg width="160" height="56" viewBox="0 0 1080 1080" style="flex-shrink:0">
      <defs><style>.logo-w{fill:#fff}</style></defs>
      <path class="logo-w" d="M252.83,430.37c4.38-6.57,8.32-13.58,11.83-20.81-24.1-5.7-51.91-8.54-83.24-8.54s-72.94,3.5-110.18,9.2c13.8-.66,27.38-.88,40.74-.88,62.43,0,109.52,7.01,140.85,21.03Z"/>
      <path class="logo-w" d="M246.26,313.39c-21.47-3.29-43.15-5.04-64.84-4.82-35.49,0-72.94,3.5-110.18,9.2,13.8-.66,27.38-.88,40.74-.88,74.04,0,126.83,9.86,157.06,29.57,0,0,.44.22,.44.44-4.38-11.61-12.05-22.78-23.22-33.3h0v-.22Z"/>
      <path class="logo-w" d="M384.91,546.68c0-2.63-.44-5.26-.66-7.89-31.32,53.67-92.88,111.71-184,173.92-31.32,21.25-66.15,43.15-104.49,65.28v64.84c192.98-113.69,292.87-215.98,289.14-296.15h0Z"/>
      <path class="logo-w" d="M256.77,573.19c-32.86,28.26-72.29,57.17-118.72,87.18v64.4c164.94-103.39,250.15-196.27,246.87-270.31-.88-19.5-4.6-37.02-10.51-52.79-6.13,52.35-45.56,109.74-117.63,171.51Z"/>
      <path class="logo-w" d="M235.3,275.06c42.5,27.38,63.52,60.68,62.43,98.35-1.53,59.36-58.05,120.04-127.49,172.83v63.52c34.17-24.1,63.74-47.53,88.5-70.31l1.53-1.31,3.5-3.29c57.17-53.67,86.74-102.73,87.62-145.89v-5.91c-4.38-96.82-72.72-145.89-203.5-145.89s-72.94,3.5-110.18,9.2c13.8-.66,27.38-.88,40.96-.88,74.04,0,126.83,9.86,157.06,29.57h-.44Z"/>
      <path class="logo-w" d="M468.59,471.11c0-3.94-.22-7.67-1.1-11.39-.66-2.85-2.19-5.48-4.6-7.45-3.07-2.19-6.35-3.72-9.86-4.6-5.48-1.53-11.17-2.63-16.87-3.29v-5.04h78.86c9.86,0,19.93.22,30.45.66,9.86.44,19.5,2.19,28.7,5.7,8.32,3.07,15.77,8.54,21.25,15.55,5.48,7.01,8.32,17.3,8.32,30.45s-2.85,23-8.76,30.23c-5.91,7.01-13.58,12.49-22.34,15.55-9.64,3.5-19.5,5.26-29.57,5.7-10.73.44-21.03.88-31.1.88h-14.68v97.26h-28.26v-170.2h-.44ZM496.85,532.22h14.02c7.67,0,15.11-.22,22.34-.88,6.79-.44,13.14-1.97,19.5-4.82,5.7-2.63,10.3-6.79,13.58-12.27,3.5-5.48,5.26-13.14,5.26-22.56,0-14.9-4.16-25.41-12.7-31.54-8.32-6.13-19.93-9.2-34.39-9.2-5.04,0-10.3,0-15.33.66-3.72.44-6.57,1.53-8.32,2.85-1.97,1.53-3.07,3.72-3.5,5.91-.44,3.5-.66,7.01-.66,10.51v61.11h0l.22.22Z"/>
      <path class="logo-w" d="M688.3,587.64c0,5.91-.88,11.83-2.19,17.74-1.53,6.35-4.38,12.27-8.54,17.3-4.38,5.26-10.51,9.64-18.62,13.14s-18.62,5.26-31.76,5.26c-16.65,0-29.57-2.85-38.55-8.76-9.2-5.91-14.02-14.68-14.68-26.5h30.01c.22,2.41.66,4.82,1.53,7.23.88,2.85,2.19,5.48,3.94,7.89,2.19,2.63,4.82,4.82,7.89,6.35,3.29,1.75,7.67,2.41,12.92,2.41,7.67,0,13.58-1.53,17.52-4.82,3.94-3.07,7.01-7.23,8.98-11.83,1.97-4.82,3.07-9.64,3.29-14.9.22-5.26.44-9.86.44-14.02v-110.4c0-5.04-.66-8.98-1.97-11.61-1.31-2.63-3.29-4.6-5.7-6.13-3.07-1.53-6.57-2.41-9.86-2.63-4.16-.44-8.76-.88-14.46-1.53v-5.04l59.8-6.79v147.64h0Z"/>
      <path class="logo-w" d="M885.66,564.64c0,8.98-.44,18.18-1.1,27.16-.66,8.76-3.29,17.09-7.89,24.53-4.38,7.23-11.61,13.14-21.47,17.74-9.86,4.6-23.66,7.01-41.62,7.01s-30.89-1.97-40.52-6.13c-9.64-4.16-17.09-9.42-22.12-16.21-5.04-7.01-8.1-15.33-9.2-23.88-1.31-9.64-1.97-19.28-1.97-28.91v-92.44c0-5.04-.66-8.98-1.97-11.61-1.31-2.63-3.29-4.82-5.91-6.13-3.07-1.53-6.57-2.41-10.08-2.63-4.16-.44-8.76-.88-14.02-1.53v-5.04l59.8-6.79v125.95c0,5.26.22,11.61.88,19.06.44,7.23,2.19,14.24,5.04,21.03,3.07,6.79,7.67,12.7,13.8,16.87,6.35,4.6,15.11,7.01,26.72,6.79,13.14,0,23.44-1.97,30.45-5.7,7.23-3.72,12.27-8.76,15.55-14.68,3.29-6.13,5.26-12.92,5.7-19.93.44-7.23.88-14.24.88-21.25v-128.14h18.84v124.64h0l.22.22Z"/>
      <path class="logo-w" d="M1028.48,463.88c-2.63-.88-5.48-2.19-9.2-3.5-3.72-1.31-7.67-2.63-12.27-3.94-4.82-1.31-9.86-2.41-14.68-3.29-5.26-.88-10.73-1.31-16.21-1.31-11.39,0-20.59,2.63-27.6,7.89-7.01,5.26-10.51,12.27-10.51,21.25-.22,7.23,2.63,14.24,7.67,19.28,5.7,5.48,12.27,10.3,19.28,14.02,7.67,4.16,16.21,8.32,25.19,12.05,8.76,3.72,17.3,8.32,25.19,13.58,7.45,4.82,14.02,11.17,19.28,18.4,5.26,7.01,7.67,15.99,7.67,26.72s-2.19,18.62-6.35,25.85c-4.16,7.01-10.08,13.14-16.87,17.52-7.45,4.82-15.77,8.1-24.53,9.86-9.64,1.97-19.28,3.07-29.13,3.07-5.48,0-10.95-.22-16.43-.66-5.48-.44-10.51-1.1-15.11-1.75s-8.76-1.31-12.05-1.97c-2.41-.44-4.6-.88-7.01-1.53v-20.15c3.07,1.31,6.57,2.85,10.51,4.16s8.54,2.85,13.36,4.16c4.82,1.31,9.86,2.41,15.11,3.29s10.73,1.31,15.99,1.31c14.02,0,24.75-3.07,32.64-9.2,7.67-6.13,11.61-15.33,11.61-27.82,0-8.1-2.63-14.9-7.67-20.37-5.48-5.7-11.83-10.73-18.84-14.68-7.89-4.38-15.99-8.54-24.31-12.05-8.54-3.72-16.65-8.1-24.31-13.14-7.23-4.6-13.58-10.73-18.84-17.52-5.04-6.79-7.67-15.11-7.67-25.41,0-15.99,6.13-28.04,18.62-36.58,12.49-8.54,29.13-12.7,50.38-12.7,9.2,0,18.4.44,27.6,1.53,8.1,1.1,14.46,1.97,19.06,3.07v20.37h0l.44.22Z"/>
    </svg>